<mxfile host="app.diagrams.net" agent="Mozilla/5.0 (Windows NT 10.0; Win64; x64) AppleWebKit/537.36 (KHTML, like Gecko) Chrome/136.0.0.0 Safari/537.36" version="27.0.8">
  <diagram name="Page-1" id="edf60f1a-56cd-e834-aa8a-f176f3a09ee4">
    <mxGraphModel dx="1042" dy="562" grid="1" gridSize="10" guides="1" tooltips="1" connect="1" arrows="1" fold="1" page="1" pageScale="1" pageWidth="1100" pageHeight="850" background="none" math="0" shadow="0">
      <root>
        <mxCell id="0" />
        <mxCell id="1" parent="0" />
        <mxCell id="KuYsVP7cK2tYHJ8gowqR-3" style="edgeStyle=orthogonalEdgeStyle;rounded=0;orthogonalLoop=1;jettySize=auto;html=1;exitX=0.5;exitY=1;exitDx=0;exitDy=0;entryX=0.5;entryY=0;entryDx=0;entryDy=0;" edge="1" parent="1" source="KuYsVP7cK2tYHJ8gowqR-1" target="KuYsVP7cK2tYHJ8gowqR-2">
          <mxGeometry relative="1" as="geometry" />
        </mxCell>
        <mxCell id="KuYsVP7cK2tYHJ8gowqR-1" value="START" style="rounded=1;whiteSpace=wrap;html=1;" vertex="1" parent="1">
          <mxGeometry x="390" y="100" width="120" height="60" as="geometry" />
        </mxCell>
        <mxCell id="KuYsVP7cK2tYHJ8gowqR-5" style="edgeStyle=orthogonalEdgeStyle;rounded=0;orthogonalLoop=1;jettySize=auto;html=1;exitX=0.5;exitY=1;exitDx=0;exitDy=0;entryX=0.5;entryY=0;entryDx=0;entryDy=0;" edge="1" parent="1" source="KuYsVP7cK2tYHJ8gowqR-2" target="KuYsVP7cK2tYHJ8gowqR-4">
          <mxGeometry relative="1" as="geometry" />
        </mxCell>
        <mxCell id="KuYsVP7cK2tYHJ8gowqR-2" value="Initialize Game" style="rounded=1;whiteSpace=wrap;html=1;" vertex="1" parent="1">
          <mxGeometry x="390" y="260" width="120" height="60" as="geometry" />
        </mxCell>
        <mxCell id="KuYsVP7cK2tYHJ8gowqR-4" value="window Open" style="rhombus;whiteSpace=wrap;html=1;" vertex="1" parent="1">
          <mxGeometry x="395" y="410" width="110" height="95" as="geometry" />
        </mxCell>
        <mxCell id="KuYsVP7cK2tYHJ8gowqR-9" style="edgeStyle=orthogonalEdgeStyle;rounded=0;orthogonalLoop=1;jettySize=auto;html=1;exitX=0.5;exitY=1;exitDx=0;exitDy=0;entryX=0.5;entryY=0;entryDx=0;entryDy=0;" edge="1" parent="1" source="KuYsVP7cK2tYHJ8gowqR-6" target="KuYsVP7cK2tYHJ8gowqR-8">
          <mxGeometry relative="1" as="geometry" />
        </mxCell>
        <mxCell id="KuYsVP7cK2tYHJ8gowqR-6" value="Poll&amp;nbsp; event&amp;nbsp;" style="rounded=1;whiteSpace=wrap;html=1;" vertex="1" parent="1">
          <mxGeometry x="395" y="610" width="120" height="60" as="geometry" />
        </mxCell>
        <mxCell id="KuYsVP7cK2tYHJ8gowqR-7" style="edgeStyle=orthogonalEdgeStyle;rounded=0;orthogonalLoop=1;jettySize=auto;html=1;exitX=0.5;exitY=1;exitDx=0;exitDy=0;entryX=0.458;entryY=-0.167;entryDx=0;entryDy=0;entryPerimeter=0;" edge="1" parent="1" source="KuYsVP7cK2tYHJ8gowqR-4" target="KuYsVP7cK2tYHJ8gowqR-6">
          <mxGeometry relative="1" as="geometry" />
        </mxCell>
        <mxCell id="KuYsVP7cK2tYHJ8gowqR-10" style="edgeStyle=orthogonalEdgeStyle;rounded=0;orthogonalLoop=1;jettySize=auto;html=1;exitX=1;exitY=0.5;exitDx=0;exitDy=0;" edge="1" parent="1" source="KuYsVP7cK2tYHJ8gowqR-8">
          <mxGeometry relative="1" as="geometry">
            <mxPoint x="680" y="790" as="targetPoint" />
          </mxGeometry>
        </mxCell>
        <mxCell id="KuYsVP7cK2tYHJ8gowqR-8" value="Process Input" style="rounded=1;whiteSpace=wrap;html=1;" vertex="1" parent="1">
          <mxGeometry x="395" y="760" width="120" height="60" as="geometry" />
        </mxCell>
        <mxCell id="KuYsVP7cK2tYHJ8gowqR-13" style="edgeStyle=orthogonalEdgeStyle;rounded=0;orthogonalLoop=1;jettySize=auto;html=1;exitX=0.5;exitY=0;exitDx=0;exitDy=0;entryX=0.5;entryY=1;entryDx=0;entryDy=0;" edge="1" parent="1" source="KuYsVP7cK2tYHJ8gowqR-11" target="KuYsVP7cK2tYHJ8gowqR-12">
          <mxGeometry relative="1" as="geometry" />
        </mxCell>
        <mxCell id="KuYsVP7cK2tYHJ8gowqR-11" value="Tiles Placed" style="rhombus;whiteSpace=wrap;html=1;" vertex="1" parent="1">
          <mxGeometry x="680" y="740" width="130" height="100" as="geometry" />
        </mxCell>
        <mxCell id="KuYsVP7cK2tYHJ8gowqR-12" value="Words Valid" style="rhombus;whiteSpace=wrap;html=1;" vertex="1" parent="1">
          <mxGeometry x="680" y="570" width="130" height="100" as="geometry" />
        </mxCell>
        <mxCell id="KuYsVP7cK2tYHJ8gowqR-17" style="edgeStyle=orthogonalEdgeStyle;rounded=0;orthogonalLoop=1;jettySize=auto;html=1;exitX=0.5;exitY=0;exitDx=0;exitDy=0;" edge="1" parent="1" source="KuYsVP7cK2tYHJ8gowqR-14" target="KuYsVP7cK2tYHJ8gowqR-16">
          <mxGeometry relative="1" as="geometry" />
        </mxCell>
        <mxCell id="KuYsVP7cK2tYHJ8gowqR-14" value="AI turn&lt;div&gt;&lt;br&gt;&lt;/div&gt;" style="rounded=1;whiteSpace=wrap;html=1;" vertex="1" parent="1">
          <mxGeometry x="690" y="440" width="120" height="60" as="geometry" />
        </mxCell>
        <mxCell id="KuYsVP7cK2tYHJ8gowqR-15" style="edgeStyle=orthogonalEdgeStyle;rounded=0;orthogonalLoop=1;jettySize=auto;html=1;exitX=0.5;exitY=0;exitDx=0;exitDy=0;entryX=0.417;entryY=0.833;entryDx=0;entryDy=0;entryPerimeter=0;" edge="1" parent="1" source="KuYsVP7cK2tYHJ8gowqR-12" target="KuYsVP7cK2tYHJ8gowqR-14">
          <mxGeometry relative="1" as="geometry" />
        </mxCell>
        <mxCell id="KuYsVP7cK2tYHJ8gowqR-21" style="edgeStyle=orthogonalEdgeStyle;rounded=0;orthogonalLoop=1;jettySize=auto;html=1;exitX=0.5;exitY=0;exitDx=0;exitDy=0;" edge="1" parent="1" source="KuYsVP7cK2tYHJ8gowqR-16" target="KuYsVP7cK2tYHJ8gowqR-20">
          <mxGeometry relative="1" as="geometry" />
        </mxCell>
        <mxCell id="KuYsVP7cK2tYHJ8gowqR-16" value="AI select move" style="rounded=1;whiteSpace=wrap;html=1;" vertex="1" parent="1">
          <mxGeometry x="690" y="280" width="120" height="60" as="geometry" />
        </mxCell>
        <mxCell id="KuYsVP7cK2tYHJ8gowqR-19" style="edgeStyle=orthogonalEdgeStyle;rounded=0;orthogonalLoop=1;jettySize=auto;html=1;exitX=0.5;exitY=1;exitDx=0;exitDy=0;" edge="1" parent="1" source="KuYsVP7cK2tYHJ8gowqR-14" target="KuYsVP7cK2tYHJ8gowqR-14">
          <mxGeometry relative="1" as="geometry" />
        </mxCell>
        <mxCell id="KuYsVP7cK2tYHJ8gowqR-23" style="edgeStyle=orthogonalEdgeStyle;rounded=0;orthogonalLoop=1;jettySize=auto;html=1;exitX=1;exitY=0.5;exitDx=0;exitDy=0;entryX=0;entryY=0.5;entryDx=0;entryDy=0;" edge="1" parent="1" source="KuYsVP7cK2tYHJ8gowqR-20" target="KuYsVP7cK2tYHJ8gowqR-22">
          <mxGeometry relative="1" as="geometry" />
        </mxCell>
        <mxCell id="KuYsVP7cK2tYHJ8gowqR-20" value="Draw UI" style="rounded=1;whiteSpace=wrap;html=1;" vertex="1" parent="1">
          <mxGeometry x="690" y="150" width="120" height="60" as="geometry" />
        </mxCell>
        <mxCell id="KuYsVP7cK2tYHJ8gowqR-22" value="END" style="rounded=1;whiteSpace=wrap;html=1;" vertex="1" parent="1">
          <mxGeometry x="930" y="150" width="120" height="60" as="geometry" />
        </mxCell>
      </root>
    </mxGraphModel>
  </diagram>
</mxfile>
